<svg width="24" height="24" viewBox="0 0 24 24" fill="none" xmlns="http://www.w3.org/2000/svg">
<path fill-rule="evenodd" clip-rule="evenodd" d="M8.42861 18.4371C8.42389 17.3737 9.28089 16.5071 10.3443 16.5C10.858 16.4966 11.3519 16.6983 11.7163 17.0603C12.0808 17.4224 12.2857 17.9149 12.2857 18.4286C12.2857 19.492 11.4249 20.3548 10.3614 20.3571C9.29798 20.3595 8.43333 19.5005 8.42861 18.4371ZM9.70145 18.4286C9.70145 18.7836 9.98926 19.0714 10.3443 19.0714C10.6993 19.0714 10.9872 18.7836 10.9872 18.4286C10.9872 18.0735 10.6993 17.7857 10.3443 17.7857C9.98926 17.7857 9.70145 18.0735 9.70145 18.4286Z" fill="white"/>
<path fill-rule="evenodd" clip-rule="evenodd" d="M13.5714 18.4371C13.5667 17.3737 14.4237 16.5071 15.4871 16.5C16.0008 16.4966 16.4947 16.6983 16.8592 17.0603C17.2236 17.4224 17.4286 17.9149 17.4286 18.4286C17.4285 19.492 16.5677 20.3548 15.5042 20.3571C14.4408 20.3595 13.5761 19.5005 13.5714 18.4371ZM14.8443 18.4286C14.8443 18.7836 15.1321 19.0714 15.4871 19.0714C15.8422 19.0714 16.13 18.7836 16.13 18.4286C16.13 18.0735 15.8422 17.7857 15.4871 17.7857C15.1321 17.7857 14.8443 18.0735 14.8443 18.4286Z" fill="white"/>
<path fill-rule="evenodd" clip-rule="evenodd" d="M6.3329 3.64285L6.6929 5.57142H21.3629L20.2315 12.2186C20.124 12.8422 19.5786 13.2949 18.9458 13.2857H8.1329L8.35148 14.4943H17.57C17.9251 14.4943 18.2129 14.7821 18.2129 15.1371C18.2129 15.4922 17.9251 15.78 17.57 15.78H7.28433L5.26576 4.92857H3.85148C3.49644 4.92857 3.20862 4.64075 3.20862 4.28571C3.20862 3.93067 3.49644 3.64285 3.85148 3.64285H6.3329ZM7.88862 12H18.9458L19.8458 6.85714H6.98862L7.88862 12Z" fill="white"/>
</svg>
