<svg width="24" height="24" viewBox="0 0 24 24" fill="none" xmlns="http://www.w3.org/2000/svg">
<path fill-rule="evenodd" clip-rule="evenodd" d="M8.42849 18.4371C8.42377 17.3737 9.28076 16.5071 10.3442 16.5C10.8579 16.4966 11.3517 16.6983 11.7162 17.0603C12.0807 17.4224 12.2856 17.9149 12.2856 18.4286C12.2856 19.492 11.4247 20.3548 10.3613 20.3571C9.29786 20.3595 8.4332 19.5005 8.42849 18.4371ZM9.70132 18.4286C9.70132 18.7836 9.98914 19.0714 10.3442 19.0714C10.6992 19.0714 10.987 18.7836 10.987 18.4286C10.987 18.0735 10.6992 17.7857 10.3442 17.7857C9.98914 17.7857 9.70132 18.0735 9.70132 18.4286Z" fill="#282828"/>
<path fill-rule="evenodd" clip-rule="evenodd" d="M13.5716 18.4371C13.5668 17.3737 14.4238 16.5071 15.4872 16.5C16.001 16.4966 16.4948 16.6983 16.8593 17.0603C17.2237 17.4224 17.4287 17.9149 17.4287 18.4286C17.4287 19.492 16.5678 20.3548 15.5044 20.3571C14.4409 20.3595 13.5763 19.5005 13.5716 18.4371ZM14.8444 18.4286C14.8444 18.7836 15.1322 19.0714 15.4872 19.0714C15.8423 19.0714 16.1301 18.7836 16.1301 18.4286C16.1301 18.0735 15.8423 17.7857 15.4872 17.7857C15.1322 17.7857 14.8444 18.0735 14.8444 18.4286Z" fill="#282828"/>
<path fill-rule="evenodd" clip-rule="evenodd" d="M6.33278 3.64285L6.69278 5.57142H21.3628L20.2314 12.2186C20.1238 12.8422 19.5784 13.2949 18.9456 13.2857H8.13278L8.35135 14.4943H17.5699C17.925 14.4943 18.2128 14.7821 18.2128 15.1371C18.2128 15.4922 17.925 15.78 17.5699 15.78H7.28421L5.26564 4.92857H3.85135C3.49631 4.92857 3.2085 4.64075 3.2085 4.28571C3.2085 3.93067 3.49631 3.64285 3.85135 3.64285H6.33278ZM7.8885 12H18.9456L19.8456 6.85714H6.9885L7.8885 12Z" fill="#282828"/>
</svg>
