<svg width="24" height="24" viewBox="0 0 24 24" fill="none" xmlns="http://www.w3.org/2000/svg">
<path fill-rule="evenodd" clip-rule="evenodd" d="M15.8901 4C14.5348 4 13.2351 4.53854 12.277 5.49709L11.9998 5.7743L11.7224 5.49696C9.72706 3.50158 6.49191 3.50158 4.49653 5.49696C2.50116 7.49234 2.50116 10.7275 4.49653 12.7229L11.4441 19.6704C11.751 19.9773 12.2486 19.9773 12.5555 19.6704L19.503 12.7229C20.4615 11.7649 21 10.4652 21 9.10991C21 7.75464 20.4615 6.45492 19.5032 5.49709C18.5451 4.53854 17.2454 4 15.8901 4ZM17.5585 12.4445L11.9998 18.0032L5.60799 11.6114C4.22645 10.2299 4.22645 7.98995 5.60799 6.60841C6.98953 5.22687 9.22945 5.22687 10.611 6.60841L11.4441 7.44149C11.751 7.74841 12.2486 7.74841 12.5555 7.44149L13.3886 6.60841C14.052 5.94468 14.9518 5.57184 15.8901 5.57184C16.8284 5.57184 17.7282 5.94468 18.3917 6.60854C19.0553 7.27184 19.4282 8.17165 19.4282 9.10991C19.4282 10.0482 19.0553 10.948 18.3917 11.6113L17.5585 12.4445Z" fill="#8C8C8C"/>
<mask id="mask0" mask-type="alpha" maskUnits="userSpaceOnUse" x="3" y="4" width="18" height="16">
<path fill-rule="evenodd" clip-rule="evenodd" d="M15.8901 4C14.5348 4 13.2351 4.53854 12.277 5.49709L11.9998 5.7743L11.7224 5.49696C9.72706 3.50158 6.49191 3.50158 4.49653 5.49696C2.50116 7.49234 2.50116 10.7275 4.49653 12.7229L11.4441 19.6704C11.751 19.9773 12.2486 19.9773 12.5555 19.6704L19.503 12.7229C20.4615 11.7649 21 10.4652 21 9.10991C21 7.75464 20.4615 6.45492 19.5032 5.49709C18.5451 4.53854 17.2454 4 15.8901 4ZM17.5585 12.4445L11.9998 18.0032L5.60799 11.6114C4.22645 10.2299 4.22645 7.98995 5.60799 6.60841C6.98953 5.22687 9.22945 5.22687 10.611 6.60841L11.4441 7.44149C11.751 7.74841 12.2486 7.74841 12.5555 7.44149L13.3886 6.60841C14.052 5.94468 14.9518 5.57184 15.8901 5.57184C16.8284 5.57184 17.7282 5.94468 18.3917 6.60854C19.0553 7.27184 19.4282 8.17165 19.4282 9.10991C19.4282 10.0482 19.0553 10.948 18.3917 11.6113L17.5585 12.4445Z" fill="white"/>
</mask>
<g mask="url(#mask0)">
</g>
</svg>
