<svg width="24" height="24" viewBox="0 0 24 24" fill="none" xmlns="http://www.w3.org/2000/svg">
<path fill-rule="evenodd" clip-rule="evenodd" d="M14.7657 8.57579C15.3588 9.17456 16.1815 9.54545 17.0909 9.54545C18.8984 9.54545 20.3636 8.0802 20.3636 6.27273C20.3636 4.46525 18.8984 3 17.0909 3C15.2834 3 13.8182 4.46525 13.8182 6.27273C13.8182 6.5812 13.8609 6.8797 13.9406 7.16265L9.59795 9.69694C9.00485 9.09817 8.1821 8.72727 7.27273 8.72727C5.46525 8.72727 4 10.1925 4 12C4 13.8075 5.46525 15.2727 7.27273 15.2727C8.18227 15.2727 9.00516 14.9017 9.59828 14.3027L13.9417 16.8337C13.8612 17.1177 13.8182 17.4175 13.8182 17.7273C13.8182 19.5347 15.2834 21 17.0909 21C18.8984 21 20.3636 19.5347 20.3636 17.7273C20.3636 15.9198 18.8984 14.4545 17.0909 14.4545C16.1829 14.4545 15.3612 14.8243 14.7684 15.4215L10.4231 12.8895C10.5028 12.6067 10.5455 12.3083 10.5455 12C10.5455 11.6915 10.5028 11.393 10.423 11.1101L14.7657 8.57579ZM15.7003 7.13557C15.989 7.59994 16.5038 7.90909 17.0909 7.90909C17.9946 7.90909 18.7273 7.17647 18.7273 6.27273C18.7273 5.36899 17.9946 4.63636 17.0909 4.63636C16.1872 4.63636 15.4545 5.36899 15.4545 6.27273C15.4545 6.55688 15.527 6.82412 15.6544 7.05699C15.6627 7.06963 15.6707 7.08256 15.6785 7.0958C15.6861 7.10893 15.6934 7.12219 15.7003 7.13557ZM8.66339 11.1372C8.67024 11.1505 8.6775 11.1638 8.68517 11.1769C8.69289 11.1902 8.70092 11.2031 8.70926 11.2157C8.83666 11.4486 8.90909 11.7158 8.90909 12C8.90909 12.2842 8.83666 12.5514 8.70926 12.7843C8.70083 12.797 8.69271 12.8101 8.6849 12.8235C8.67734 12.8365 8.67017 12.8496 8.66339 12.8628C8.37465 13.3272 7.85979 13.6364 7.27273 13.6364C6.36899 13.6364 5.63636 12.9037 5.63636 12C5.63636 11.0963 6.36899 10.3636 7.27273 10.3636C7.85979 10.3636 8.37465 10.6728 8.66339 11.1372ZM15.6869 16.9038C15.6697 16.9333 15.6509 16.9614 15.6307 16.988C15.518 17.21 15.4545 17.4612 15.4545 17.7273C15.4545 18.631 16.1872 19.3636 17.0909 19.3636C17.9946 19.3636 18.7273 18.631 18.7273 17.7273C18.7273 16.8235 17.9946 16.0909 17.0909 16.0909C16.524 16.0909 16.0245 16.3792 15.7308 16.8171C15.7181 16.8465 15.7034 16.8754 15.6869 16.9038Z" fill="#8C8C8C"/>
</svg>
